<?xml version="1.0" standalone="no"?>
<!DOCTYPE svg PUBLIC "-//W3C//DTD SVG 20010904//EN"
 "http://www.w3.org/TR/2001/REC-SVG-20010904/DTD/svg10.dtd">
<svg version="1.0" xmlns="http://www.w3.org/2000/svg"
 width="300.000000pt" height="300.000000pt" viewBox="0 0 300.000000 300.000000"
 preserveAspectRatio="xMidYMid meet">
<metadata>
Created by potrace 1.14, written by Peter Selinger 2001-2017
</metadata>
<g transform="translate(0.000000,300.000000) scale(0.100000,-0.100000)"
fill="#000000" stroke="none">
<path d="M1558 2895 c-2 -2 -53 -6 -113 -10 -101 -6 -256 -40 -308 -67 -41
-21 -183 -168 -184 -190 -1 -13 -5 -48 -9 -78 -10 -72 -7 -131 6 -144 18 -18
11 -30 -33 -60 -56 -38 -144 -150 -158 -199 -5 -20 -20 -52 -32 -70 -20 -30
-36 -60 -86 -167 -13 -28 -15 -46 -8 -89 6 -35 5 -67 -1 -88 -7 -23 -6 -43 3
-69 14 -42 15 -40 -50 -89 -62 -46 -85 -72 -91 -105 -4 -16 -10 -30 -14 -30
-5 0 -7 -6 -5 -12 1 -7 6 -27 10 -44 4 -18 25 -49 46 -70 24 -24 35 -41 30
-48 -27 -33 -64 -116 -67 -153 -4 -35 0 -47 26 -76 35 -41 36 -48 10 -72 -24
-22 -26 -72 -4 -103 14 -20 23 -23 66 -19 28 2 52 -1 56 -7 4 -6 7 -43 7 -81
1 -62 4 -75 30 -108 49 -65 144 -98 222 -78 21 5 58 12 83 15 25 3 54 8 65 10
11 2 45 7 75 11 30 4 63 9 72 10 21 4 94 -48 102 -72 3 -10 7 -30 10 -45 7
-40 34 -93 64 -125 41 -42 68 -84 81 -123 7 -22 25 -44 48 -60 21 -14 50 -39
66 -57 l28 -32 164 167 c90 92 243 248 340 347 97 99 204 208 238 242 69 70
68 85 -5 92 -16 2 -7 44 18 87 21 35 24 49 17 71 -8 22 -4 39 13 78 13 28 26
72 29 98 3 26 14 62 24 80 11 18 19 52 20 81 0 27 8 59 17 74 9 14 18 51 20
86 2 33 7 99 12 146 5 47 8 132 6 190 -3 58 -5 137 -5 175 -1 39 -10 93 -19
120 -10 28 -21 68 -25 90 -9 51 -40 112 -66 128 -11 6 -28 28 -37 47 -27 57
-91 110 -243 204 -179 110 -222 132 -280 140 -25 3 -88 16 -140 27 -103 23
-136 29 -141 24z"/>
</g>
</svg>
